<svg width="100" height="100" viewBox="0 0 100 100" fill="none" xmlns="http://www.w3.org/2000/svg">
<path d="M73.3333 70.0001H83.3333V60.0001M73.3333 30.0001H83.3333V40.0001M26.6667 30.0001H16.6667V40.0001M16.6667 60.0001V70.0001H26.6667M50 63.3334C42.6362 63.3334 36.6667 57.3639 36.6667 50.0001C36.6667 42.6363 42.6362 36.6667 50 36.6667C57.3638 36.6667 63.3333 42.6363 63.3333 50.0001C63.3333 57.3639 57.3638 63.3334 50 63.3334ZM10 16.6667H90C93.6819 16.6667 96.6667 19.6515 96.6667 23.3334V76.6667C96.6667 80.3486 93.6819 83.3334 90 83.3334H10C6.31811 83.3334 3.33334 80.3486 3.33334 76.6667V23.3334C3.33334 19.6515 6.31811 16.6667 10 16.6667Z" stroke="#1FEEE2"/>
</svg>
