<svg width="100" height="100" viewBox="0 0 100 100" fill="none" xmlns="http://www.w3.org/2000/svg">
<path d="M30 23.3333H30.5C30.5 23.1014 30.3406 22.9 30.1149 22.8467C29.8892 22.7934 29.6565 22.9023 29.5528 23.1097L30 23.3333ZM30 76.6667V77.1667C30.2761 77.1667 30.5 76.9428 30.5 76.6667H30ZM3.33333 76.6667L2.88611 76.4431C2.80862 76.5981 2.8169 76.7821 2.908 76.9295C2.99911 77.0769 3.16004 77.1667 3.33333 77.1667V76.6667ZM70 23.3333L70.4472 23.1097C70.3435 22.9023 70.1108 22.7934 69.8851 22.8467C69.6594 22.9 69.5 23.1014 69.5 23.3333H70ZM70 76.6667H69.5C69.5 76.9428 69.7239 77.1667 70 77.1667V76.6667ZM96.6667 76.6667V77.1667C96.8399 77.1667 97.0009 77.0769 97.092 76.9295C97.1831 76.7821 97.1914 76.5981 97.1139 76.4431L96.6667 76.6667ZM29.5 23.3333V76.6667H30.5V23.3333H29.5ZM30 76.1667H3.33333V77.1667H30V76.1667ZM3.78054 76.8903L30.4472 23.5569L29.5528 23.1097L2.88611 76.4431L3.78054 76.8903ZM69.5 23.3333V76.6667H70.5V23.3333H69.5ZM70 77.1667H96.6667V76.1667H70V77.1667ZM97.1139 76.4431L70.4472 23.1097L69.5528 23.5569L96.2194 76.8903L97.1139 76.4431ZM49.5 0V100H50.5V0H49.5Z" fill="white"/>
</svg>
