<svg width="100" height="100" viewBox="0 0 100 100" fill="none" xmlns="http://www.w3.org/2000/svg">
<path d="M90 9.99992L63.3333 36.6666M16.6667 3.33325H31.4615C34.5206 3.33325 37.1872 5.41523 37.9291 8.38301L41.836 24.0107C42.6809 27.3903 40.7814 30.8506 37.4766 31.9522L30.0857 34.4158C26.2282 35.7016 23.9318 39.6587 24.7292 43.646C27.921 59.6047 40.3953 72.079 56.3539 75.2707C60.3412 76.0682 64.2983 73.7718 65.5841 69.9142L67.5693 63.9589C68.8522 60.1101 73.2465 58.2899 76.8752 60.1042L92.9814 68.1573C95.24 69.2866 96.6667 71.595 96.6667 74.1201V83.3333C96.6667 90.697 90.6971 96.6666 83.3333 96.6666H70C33.181 96.6666 3.33334 66.8189 3.33334 29.9999V16.6666C3.33334 9.30279 9.30288 3.33325 16.6667 3.33325ZM76.6667 43.3333C65.621 43.3333 56.6667 34.3789 56.6667 23.3333C56.6667 12.2876 65.621 3.33325 76.6667 3.33325C87.7124 3.33325 96.6667 12.2876 96.6667 23.3333C96.6667 34.3789 87.7124 43.3333 76.6667 43.3333Z" stroke="white"/>
</svg>
