<svg width="100" height="100" viewBox="0 0 100 100" fill="none" xmlns="http://www.w3.org/2000/svg">
<path d="M3.33331 50.0001L2.86907 49.8144C2.82139 49.9336 2.82139 50.0666 2.86907 50.1858L3.33331 50.0001ZM96.6666 50.0001L97.1309 50.1858C97.1786 50.0666 97.1786 49.9336 97.1309 49.8144L96.6666 50.0001ZM49.9999 82.8334C33.5192 82.8334 21.9777 74.5983 14.5382 66.3323C10.8182 62.1988 8.13015 58.0637 6.37248 54.9619C5.49392 53.4115 4.84858 52.1206 4.42359 51.2192C4.21112 50.7685 4.05378 50.4152 3.94997 50.1756C3.89806 50.0558 3.85954 49.9645 3.83421 49.9036C3.82154 49.8732 3.81217 49.8503 3.80606 49.8354C3.80301 49.8279 3.80078 49.8224 3.79936 49.8189C3.79866 49.8171 3.79815 49.8159 3.79785 49.8151C3.7977 49.8147 3.79762 49.8146 3.79755 49.8144C3.79752 49.8143 3.79755 49.8144 3.33331 50.0001C2.86907 50.1858 2.8692 50.1861 2.86938 50.1865C2.86951 50.1869 2.86974 50.1874 2.87 50.1881C2.87051 50.1894 2.87123 50.1911 2.87215 50.1934C2.87399 50.198 2.87666 50.2045 2.88014 50.2131C2.88711 50.2302 2.89737 50.2552 2.91095 50.2878C2.9381 50.353 2.97852 50.4489 3.03241 50.5732C3.14018 50.8219 3.30186 51.1848 3.51907 51.6456C3.95345 52.567 4.61019 53.8803 5.50245 55.4549C7.28642 58.6031 10.015 62.8013 13.7949 67.0012C21.3554 75.4018 33.1472 83.8334 49.9999 83.8334V82.8334ZM3.33331 50.0001C3.79755 50.1858 3.79752 50.1858 3.79755 50.1858C3.79762 50.1856 3.7977 50.1854 3.79785 50.185C3.79815 50.1843 3.79866 50.183 3.79936 50.1813C3.80078 50.1778 3.80301 50.1723 3.80606 50.1648C3.81217 50.1498 3.82154 50.127 3.83421 50.0965C3.85954 50.0357 3.89806 49.9443 3.94997 49.8245C4.05378 49.585 4.21112 49.2317 4.42359 48.781C4.84858 47.8795 5.49392 46.5887 6.37248 45.0382C8.13015 41.9364 10.8182 37.8013 14.5382 33.6679C21.9777 25.4018 33.5192 17.1667 49.9999 17.1667V16.1667C33.1472 16.1667 21.3554 24.5983 13.7949 32.9989C10.015 37.1988 7.28642 41.397 5.50245 44.5452C4.61019 46.1198 3.95345 47.4331 3.51907 48.3546C3.30186 48.8153 3.14018 49.1782 3.03241 49.4269C2.97852 49.5513 2.9381 49.6471 2.91095 49.7124C2.89737 49.745 2.88711 49.77 2.88014 49.7871C2.87666 49.7956 2.87399 49.8022 2.87215 49.8067C2.87123 49.809 2.87051 49.8108 2.87 49.8121C2.86974 49.8127 2.86951 49.8133 2.86938 49.8136C2.8692 49.8141 2.86907 49.8144 3.33331 50.0001ZM49.9999 17.1667C66.4806 17.1667 78.0221 25.4018 85.4616 33.6679C89.1817 37.8013 91.8698 41.9365 93.6275 45.0383C94.506 46.5887 95.1514 47.8795 95.5764 48.781C95.7888 49.2317 95.9462 49.585 96.05 49.8245C96.1019 49.9443 96.1404 50.0357 96.1658 50.0966C96.1784 50.127 96.1878 50.1498 96.1939 50.1648C96.1969 50.1723 96.1992 50.1778 96.2006 50.1813C96.2013 50.183 96.2018 50.1843 96.2021 50.185C96.2023 50.1854 96.2023 50.1856 96.2024 50.1858C96.2024 50.1858 96.2024 50.1858 96.6666 50.0001C97.1309 49.8144 97.1308 49.8141 97.1306 49.8136C97.1304 49.8133 97.1302 49.8127 97.13 49.8121C97.1294 49.8108 97.1287 49.809 97.1278 49.8067C97.126 49.8022 97.1233 49.7956 97.1198 49.7871C97.1128 49.77 97.1026 49.745 97.089 49.7124C97.0619 49.6471 97.0214 49.5513 96.9675 49.4269C96.8598 49.1782 96.6981 48.8153 96.4809 48.3546C96.0465 47.4331 95.3897 46.1198 94.4975 44.5452C92.7135 41.397 89.9848 37.1988 86.2049 32.9989C78.6444 24.5983 66.8525 16.1667 49.9999 16.1667V17.1667ZM96.6666 50.0001C96.2024 49.8144 96.2024 49.8143 96.2024 49.8144C96.2023 49.8146 96.2023 49.8147 96.2021 49.8151C96.2018 49.8159 96.2013 49.8171 96.2006 49.8189C96.1992 49.8224 96.1969 49.8279 96.1939 49.8354C96.1878 49.8503 96.1784 49.8732 96.1658 49.9036C96.1404 49.9645 96.1019 50.0558 96.05 50.1756C95.9462 50.4152 95.7888 50.7685 95.5764 51.2192C95.1514 52.1206 94.506 53.4115 93.6275 54.9619C91.8698 58.0637 89.1817 62.1988 85.4616 66.3323C78.0221 74.5983 66.4806 82.8334 49.9999 82.8334V83.8334C66.8525 83.8334 78.6444 75.4018 86.2049 67.0012C89.9848 62.8013 92.7135 58.6031 94.4975 55.4549C95.3897 53.8803 96.0465 52.567 96.4809 51.6456C96.6981 51.1848 96.8598 50.8219 96.9675 50.5732C97.0214 50.4489 97.0619 50.353 97.089 50.2878C97.1026 50.2552 97.1128 50.2302 97.1198 50.2131C97.1233 50.2046 97.126 50.198 97.1278 50.1934C97.1287 50.1911 97.1294 50.1894 97.13 50.1881C97.1302 50.1874 97.1304 50.1869 97.1306 50.1865C97.1308 50.1861 97.1309 50.1858 96.6666 50.0001ZM50 62.8334C42.9123 62.8334 37.1666 57.0877 37.1666 50.0001H36.1666C36.1666 57.64 42.36 63.8334 50 63.8334V62.8334ZM62.8333 50.0001C62.8333 57.0877 57.0876 62.8334 50 62.8334V63.8334C57.6399 63.8334 63.8333 57.64 63.8333 50.0001H62.8333ZM50 37.1667C57.0876 37.1667 62.8333 42.9124 62.8333 50.0001H63.8333C63.8333 42.3601 57.6399 36.1667 50 36.1667V37.1667ZM50 36.1667C42.36 36.1667 36.1666 42.3601 36.1666 50.0001H37.1666C37.1666 42.9124 42.9123 37.1667 50 37.1667V36.1667Z" fill="#1FEEE2"/>
</svg>
